<?xml version="1.0" encoding="UTF-8"?>
<svg width="756px" height="418px" viewBox="0 0 756 418" version="1.1" xmlns="http://www.w3.org/2000/svg" xmlns:xlink="http://www.w3.org/1999/xlink">
    <title>Group</title>
    <g id="Page-1" stroke="none" stroke-width="1" fill="none" fill-rule="evenodd">
        <g id="Group" transform="translate(1.391602, 5.437500)">
            <path d="M519.647461,247.175781 C539.962565,186.126302 529.293294,146.602865 487.639648,128.605469 C425.15918,101.609375 320.358398,155.609375 301.69043,155.609375 C283.022461,155.609375 310.311523,5.68434189e-14 296.666992,5.68434189e-14 C289.607328,5.68434189e-14 260.326966,27.6703538 242.385742,55.2910156 C225.651155,81.0540493 219.950195,107.345586 219.950195,95.7353516 C219.950195,71.6777344 216.762526,34.828125 207.073242,34.828125 C198.197573,34.828125 175.928803,55.4489766 159.108398,79.1201172 C139.632927,106.527699 126.026367,137.535156 126.026367,137.535156 C126.026367,137.535156 130.756836,83.5117188 119.233398,83.5117188 C113.553732,83.5117188 92.9076263,102.965431 83.9628906,127.06543 C74.75971,151.861762 77.3349609,181.324219 77.3349609,181.324219 C77.3349609,181.324219 65.2064255,176.991711 54.8515625,167.068359 C45.7728577,158.367986 38.8366565,143.431831 32.1357422,149.464844 C27.9470415,153.236043 28.8159886,164.748277 28.296875,171.90625 C27.8528849,178.028357 29.1325073,187.982784 32.1357422,201.769531 C13.7659505,202.769531 4.58105469,207.203125 4.58105469,215.070313 C4.58105469,222.9375 25.3883464,229.549479 67.0029297,234.90625 C67.8414714,302.994792 83.1578776,348.973958 112.952148,372.84375 C131.786718,387.933136 166.743598,410.177701 216.266602,406.189453 C245.083681,403.86872 273.928263,377.406681 324.975586,372.84375 C376.022909,368.280819 416.676014,391.394087 430.225586,387.064453 C439.258634,384.178031 472.839363,356.703421 530.967773,304.640625 L629.135742,290.84375 L639.00293,274.46875 L743.467773,260.445313 C751.433919,249.18099 751.433919,239.426432 743.467773,231.181641 C737.989,225.511227 702.136374,232.898364 633.614258,241.251953 C612.87482,243.780315 574.885888,245.754925 519.647461,247.175781 Z" id="Path-2" fill="#2F4F4F"></path>
            <path d="M481.861328,251.830078 C456.921044,257.019273 444.450901,269.350602 444.450901,288.824065 C444.450901,308.297528 461.843244,324.071017 496.62793,336.144531 L530.967773,304.640625 L630.041992,288.824065 L639.00293,274.46875 L740.424805,256.353516 C746.436523,248.681641 746.436523,241.545573 740.424805,234.945313 C738.507444,232.840244 693.171335,237.274738 611.609375,247.079102 C586.766276,250.06543 543.516927,251.649089 481.861328,251.830078 Z" id="Path" fill="#FEA400"></path>
            <path d="M296.666992,4.26325641e-14 C296.666992,32.5221354 295.560872,62.1692708 293.348633,88.9414063 C291.136393,115.713542 295.530273,138.899089 306.530273,158.498047 C278.922852,176.334635 262.281576,186.022786 256.606445,187.5625 C250.931315,189.102214 231.433268,192.125651 198.112305,196.632812 C192.475586,164.93316 189.657227,140.125868 189.657227,122.210938 C189.657227,104.296007 192.475586,78.7621528 198.112305,45.609375 C202.700846,39.9804687 205.724284,37.1660156 207.182617,37.1660156 C208.640951,37.1660156 211.078451,41.0384115 214.495117,48.7832031 L219.950195,95.7353516 C230.406986,75.945154 240.231205,60.2944379 249.422852,48.7832031 C258.614498,37.2719684 274.362545,21.0109006 296.666992,4.26325641e-14 Z" id="Path-4" fill="#C0C0C0"></path>
            <path d="M200.170898,37.1660156 C190.889648,125.602214 193.375326,185.973958 207.62793,218.28125 C229.006836,266.742187 266.424805,272.484375 269.536133,280.701172 C272.647461,288.917969 279.52354,342.578125 232.808157,342.578125 C210.247612,342.578125 156.066664,326.642491 122.864258,297.84375 C99.165103,277.287836 81.1117176,248.015049 68.7041016,210.025391 C74.0032155,213.700523 80.1737884,216.452476 87.2158203,218.28125 C82.045675,204.688622 79.0691125,194.723127 78.2861328,188.384766 C76.3484825,172.699138 79.6097095,158.29738 81.7314453,144.373047 C85.1392306,122.008747 98.8501681,103.051064 122.864258,87.5 C124.661364,99.2583639 125.906156,108.275942 126.598633,114.552734 C127.29111,120.829527 127.29111,128.699318 126.598633,138.162109 C137.907287,116.509841 148.184631,99.622471 157.430664,87.5 C166.676697,75.377529 180.923442,58.5995342 200.170898,37.1660156 Z" id="Path-3" fill="#DBDBDB"></path>
            <ellipse id="Oval" fill="#1A1A1A" cx="398.108398" cy="203.5625" rx="46.5" ry="59"></ellipse>
            <ellipse id="Oval-Copy" fill="#1A1A1A" cx="488.608398" cy="187.5625" rx="31" ry="37"></ellipse>
            <path d="M30.2636719,150.335938 C29.3087661,162.537956 29.3087661,171.686068 30.2636719,177.780273 C31.2185777,183.874479 33.8764553,191.688932 38.2373047,201.223633 C27.4615386,201.35825 19.9091297,202.281427 15.5800781,203.993164 C11.2510265,205.704901 6.05766713,209.356594 -2.84217094e-14,214.948242 C11.7912257,224.099525 21.3537257,229.722897 28.6875,231.818359 C39.6881615,234.961553 61.2421875,234.494141 65.1503906,233.15625 C67.7558594,232.264323 69.867513,228.101237 71.4853516,220.666992 L94.6445313,220.666992 C81.8362525,198.317634 71.4524634,182.795498 63.4931641,174.100586 C55.5338647,165.405674 44.4573673,157.484124 30.2636719,150.335938 Z" id="Path-5" fill="#0E0E15"></path>
            <path d="M519.647461,247.175781 C539.962565,186.126302 529.293294,146.602865 487.639648,128.605469 C425.15918,101.609375 320.358398,155.609375 301.69043,155.609375 C283.022461,155.609375 310.311523,5.68434189e-14 296.666992,5.68434189e-14 C289.607328,5.68434189e-14 260.326966,27.6703538 242.385742,55.2910156 C225.651155,81.0540493 219.950195,107.345586 219.950195,95.7353516 C219.950195,71.6777344 216.762526,34.828125 207.073242,34.828125 C198.197573,34.828125 175.928803,55.4489766 159.108398,79.1201172 C139.632927,106.527699 126.026367,137.535156 126.026367,137.535156 C126.026367,137.535156 130.756836,83.5117188 119.233398,83.5117188 C113.553732,83.5117188 92.9076263,102.965431 83.9628906,127.06543 C74.75971,151.861762 77.3349609,181.324219 77.3349609,181.324219 C77.3349609,181.324219 65.2064255,176.991711 54.8515625,167.068359 C45.7728577,158.367986 38.8366565,143.431831 32.1357422,149.464844 C27.9470415,153.236043 28.8159886,164.748277 28.296875,171.90625 C27.8528849,178.028357 29.1325073,187.982784 32.1357422,201.769531 C13.7659505,202.769531 4.58105469,207.203125 4.58105469,215.070313 C4.58105469,222.9375 25.3883464,229.549479 67.0029297,234.90625 C67.8414714,302.994792 83.1578776,348.973958 112.952148,372.84375 C131.786718,387.933136 166.743598,410.177701 216.266602,406.189453 C245.083681,403.86872 273.928263,377.406681 324.975586,372.84375 C376.022909,368.280819 416.676014,391.394087 430.225586,387.064453 C439.258634,384.178031 472.839363,356.703421 530.967773,304.640625 L629.135742,290.84375 L639.00293,274.46875 L743.467773,260.445313 C751.433919,249.18099 751.433919,239.426432 743.467773,231.181641 C737.989,225.511227 702.136374,232.898364 633.614258,241.251953 C612.87482,243.780315 574.885888,245.754925 519.647461,247.175781 Z" id="Path-2" stroke="#1A1A1A" stroke-width="10" stroke-linejoin="round"></path>
        </g>
    </g>
</svg>