<?xml version="1.0" encoding="UTF-8"?>
<svg width="747px" height="409px" viewBox="0 0 747 409" version="1.1" xmlns="http://www.w3.org/2000/svg" xmlns:xlink="http://www.w3.org/1999/xlink">
    <title>Path 2</title>
    <g id="Page-1" stroke="none" stroke-width="1" fill="none" fill-rule="evenodd" stroke-linejoin="round">
        <path d="M516.039063,248.613281 C536.354167,187.563802 525.684896,148.040365 484.03125,130.042969 C421.550781,103.046875 316.75,157.046875 298.082031,157.046875 C279.414063,157.046875 306.703125,1.4375 293.058594,1.4375 C285.998929,1.4375 256.718568,29.1078538 238.777344,56.7285156 C222.042757,82.4915493 216.341797,108.783086 216.341797,97.1728516 C216.341797,73.1152344 213.154128,36.265625 203.464844,36.265625 C194.589175,36.265625 172.320405,56.8864766 155.5,80.5576172 C136.024529,107.965199 122.417969,138.972656 122.417969,138.972656 C122.417969,138.972656 127.148438,84.9492188 115.625,84.9492188 C109.945334,84.9492188 89.2992278,104.402931 80.3544922,128.50293 C71.1513115,153.299262 73.7265625,182.761719 73.7265625,182.761719 C73.7265625,182.761719 61.5980271,178.429211 51.2431641,168.505859 C42.1644593,159.805486 35.228258,144.869331 28.5273438,150.902344 C24.3386431,154.673543 25.2075901,166.185777 24.6884766,173.34375 C24.2444865,179.465857 25.5241089,189.420284 28.5273438,203.207031 C10.1575521,204.207031 0.97265625,208.640625 0.97265625,216.507813 C0.97265625,224.375 21.7799479,230.986979 63.3945313,236.34375 C64.2330729,304.432292 79.5494792,350.411458 109.34375,374.28125 C128.17832,389.370636 163.1352,411.615201 212.658203,407.626953 C241.475283,405.30622 270.319865,378.844181 321.367188,374.28125 C372.41451,369.718319 413.067616,392.831587 426.617188,388.501953 C435.650235,385.615531 469.230964,358.140921 527.359375,306.078125 L625.527344,292.28125 L635.394531,275.90625 L739.859375,261.882813 C747.825521,250.61849 747.825521,240.863932 739.859375,232.619141 C734.380602,226.948727 698.527976,234.335864 630.005859,242.689453 C609.266422,245.217815 571.277489,247.192425 516.039063,248.613281 Z" id="Path-2" stroke="#1A1A1A" transform="translate(373.403320, 204.767529) scale(-1, 1) translate(-373.403320, -204.767529) "></path>
    </g>
</svg>