<?xml version="1.0" standalone="no"?>
<!DOCTYPE svg PUBLIC "-//W3C//DTD SVG 20010904//EN"
 "http://www.w3.org/TR/2001/REC-SVG-20010904/DTD/svg10.dtd">
<svg version="1.0" xmlns="http://www.w3.org/2000/svg"
 width="89.000000pt" height="59.000000pt" viewBox="0 0 89.000000 59.000000"
 preserveAspectRatio="xMidYMid meet">
<metadata>
Created by potrace 1.16, written by Peter Selinger 2001-2019
</metadata>
<g transform="translate(0.000000,59.000000) scale(0.100000,-0.100000)"
fill="#000000" stroke="none">
<path d="M512 451 c3 -75 -3 -91 -26 -72 -8 6 -43 13 -78 14 -78 2 -95 -11
-100 -74 -3 -40 -5 -44 -28 -41 -14 2 -60 6 -102 9 -64 4 -78 2 -78 -9 0 -18
41 -38 78 -38 16 0 33 -5 38 -10 6 -6 27 -11 47 -12 20 -1 37 -5 37 -10 0 -4
5 -8 10 -8 6 0 21 -9 33 -21 45 -43 73 -58 88 -48 19 12 86 12 94 0 8 -14 89
-24 130 -17 49 9 91 76 94 148 1 11 11 18 28 20 30 3 47 38 19 38 -12 0 -15 6
-10 25 5 19 2 25 -10 25 -9 0 -16 -6 -16 -12 -1 -7 -10 5 -20 26 -22 44 -37
57 -56 49 -7 -3 -25 7 -39 21 -14 14 -32 23 -40 20 -8 -3 -29 6 -48 20 -19 14
-37 26 -41 26 -4 0 -6 -31 -4 -69z m90 -15 c-7 40 26 27 65 -24 28 -36 33 -40
33 -22 0 19 2 20 15 10 17 -14 19 -120 3 -153 -12 -24 -105 -69 -136 -65 -40
5 -41 45 -2 83 38 37 38 51 -2 59 -49 10 -53 18 -50 98 l4 73 38 -42 c33 -38
37 -40 32 -17z"/>
</g>
</svg>
