<?xml version="1.0" standalone="no"?>
<!DOCTYPE svg PUBLIC "-//W3C//DTD SVG 20010904//EN"
 "http://www.w3.org/TR/2001/REC-SVG-20010904/DTD/svg10.dtd">
<svg version="1.0" xmlns="http://www.w3.org/2000/svg"
 width="124.000000pt" height="61.000000pt" viewBox="0 0 124.000000 61.000000"
 preserveAspectRatio="xMidYMid meet">
<metadata>
Created by potrace 1.16, written by Peter Selinger 2001-2019
</metadata>
<g transform="translate(0.000000,61.000000) scale(0.100000,-0.100000)"
fill="#000000" stroke="none">
<path d="M227 545 c-9 -8 -20 -15 -26 -15 -6 0 -11 -9 -11 -20 0 -44 -21 -67
-72 -78 -65 -16 -68 -15 -68 8 0 28 -30 25 -32 -2 -4 -71 -3 -77 15 -82 11 -2
16 -10 12 -15 -3 -6 -10 -9 -14 -6 -9 5 -23 -87 -15 -95 3 -2 14 1 25 8 27 17
45 2 59 -46 8 -29 6 -39 -8 -55 -24 -27 -20 -93 7 -120 28 -28 85 -27 117 4
26 24 34 92 13 105 -7 4 -1 16 15 33 26 27 24 43 -6 54 -26 9 -22 23 12 47 29
20 35 21 96 11 87 -16 172 -48 201 -77 24 -24 25 -24 263 -24 209 0 242 -2
269 -17 17 -10 31 -23 31 -29 0 -20 28 -36 50 -29 16 5 20 14 18 33 -2 20 -10
28 -34 33 -48 9 -55 17 -48 54 l6 33 -64 11 c-36 6 -72 11 -82 11 -12 0 -16 5
-11 19 5 17 -8 21 -137 45 -79 15 -192 34 -253 44 l-109 17 -9 35 c-5 19 -11
50 -14 68 -7 43 -21 41 -26 -5 -3 -33 -5 -35 -12 -15 -8 25 -25 30 -25 7 0 -8
-4 -15 -9 -15 -17 0 -24 -42 -10 -52 11 -7 9 -8 -4 -4 -10 3 -25 6 -33 6 -9 0
-14 10 -14 28 0 15 -4 32 -9 38 -5 5 -11 20 -13 33 -4 30 -21 37 -41 16z"/>
</g>
</svg>
