<?xml version="1.0" encoding="UTF-8"?>
<svg width="1227px" height="569px" viewBox="0 0 1227 569" version="1.1" xmlns="http://www.w3.org/2000/svg" xmlns:xlink="http://www.w3.org/1999/xlink">
    <title>Path 12</title>
    <g id="Page-1" stroke="none" stroke-width="1" fill="none" fill-rule="evenodd" stroke-linejoin="round">
        <path d="M671.257813,395.621094 L166.228804,395.621094 C165.290541,395.621094 164.371209,395.885096 163.575905,396.382919 L95.6484375,438.902344 L95.6484375,438.902344 C96.9258419,445.186838 97.283101,449.776519 96.7202148,452.671387 C94.3550757,464.835064 85.4309007,471.741699 73.5,471.741699 C60.463515,471.741699 52.480957,462.630859 50.4282227,455.066406 C48.3754883,447.501953 50.4282227,437.992187 54.8867187,433.379395 C59.3452148,428.766602 67.3735975,423.163398 77.0234375,424.5 C79.7966295,424.884116 83.9362779,426.700522 89.4423828,429.949219 L144.925781,395.621094 C60.2929688,400.496094 12.9895833,379.735677 3.015625,333.339844 C-3.78824272,301.690312 -10.6953125,241.845703 17.4902344,192.681641 C25.6578969,178.434783 49.9703969,164.112517 90.4277344,149.714844 L93.6855832,137.180718 C94.8415008,132.733484 98.8561708,129.628906 103.451172,129.628906 C107.760503,129.628906 111.253906,133.122309 111.253906,137.431641 L111.253906,159.367187 L111.253906,159.367187 C152.315104,176.825521 182.719401,194.084635 202.466797,211.144531 C221.240582,227.363319 238.658042,249.378115 254.719177,277.18892 L254.719182,277.188917 C256.224934,279.796215 259.229248,281.14857 262.179411,280.547048 C326.446445,267.443357 393.66724,254.542908 463.841797,241.845703 C525.675283,230.65771 614.919575,218.839611 729.884766,199.183594 C742.469595,197.03192 761.781444,192.488951 787.820313,185.554687 L800.4375,178.429687 L808.195313,103.070312 C779.522327,106.027658 758.633004,106.027658 745.527344,103.070312 C733.111962,100.268731 716.814885,92.3609411 696.636113,79.3469434 L696.636119,79.3469337 C695.243732,78.4489344 694.842951,76.5922093 695.740951,75.1998221 C695.909017,74.9392272 696.116471,74.7062649 696.355919,74.5092356 C714.445572,59.6242302 734.655708,48.0749277 756.986328,39.8613281 C780.610182,31.1720541 818.248854,21.093278 869.902344,9.625 C889.217784,5.38260447 912.122731,2.67296906 938.617187,1.49609375 C965.111644,0.319218442 1004.25617,0.319218442 1056.05078,1.49609375 L1108.37522,28.4045774 C1109.84865,29.162309 1110.42884,30.9710264 1109.67111,32.4444608 C1109.41666,32.9392574 1109.02962,33.353543 1108.55324,33.6410151 L1067.02781,58.6999769 C1065.15682,59.829051 1063.01302,60.4257812 1060.82774,60.4257812 L1033.11133,60.4257812 L1033.11133,60.4257812 L1033.11133,92.7636719 L1059.45898,152.576172 C1078.07509,152.896295 1093.03212,154.429173 1104.33008,157.174805 C1115.62804,159.920437 1130.56554,165.652533 1149.14258,174.371094 L1170.47793,174.371094 C1177.9729,174.371094 1184.76754,178.777201 1187.82506,185.620161 L1197.82031,207.990234 L1197.82031,207.990234 L1200.95898,163.8125 L1194.55859,137.630859 L1206.00586,137.630859 L1211.55664,152.576172 L1211.55664,218.347656 L1218.78813,226.890089 C1223.0733,231.952085 1223.21864,239.326271 1219.13626,244.553185 L1211.55664,254.257812 L1211.55664,254.257812 L1211.55664,321.732422 L1219.05664,337.126953 L1206.00586,337.126953 L1200.95898,328.8125 L1200.95898,308.205078 L1197.18888,310.888903 C1192.27776,314.384986 1186.39919,316.263672 1180.37078,316.263672 L1161.00586,316.263672 L1161.00586,316.263672 C1156.84646,323.892231 1152.89204,329.584288 1149.14258,333.339844 C1145.39312,337.095399 1139.33713,341.430035 1130.97461,346.34375 L1113.15625,429.949219 C1140.83529,448.402995 1154.6748,470.086589 1154.6748,495 C1154.6748,532.370117 1124.83887,568 1081,568 C1037.16113,568 1009.26465,532.81543 1007.78516,498.951172 C1006.79883,476.375 1015.24089,456.358724 1033.11133,438.902344 L969.568359,375.759766 C877.236328,384.203776 825.964844,389.625 815.753906,392.023437 C800.4375,395.621094 747.162109,426.742187 716.542969,411.181641 C696.130208,400.807943 681.035156,395.621094 671.257813,395.621094 Z" id="Path-12" stroke="#1A1A1A" transform="translate(611.558457, 284.306719) scale(-1, 1) translate(-611.558457, -284.306719) "></path>
    </g>
</svg>