<?xml version="1.0" encoding="UTF-8"?>
<svg width= "10px" height = "10px" viewBox="0 0 1575 786" version="1.1" xmlns="http://www.w3.org/2000/svg" xmlns:xlink="http://www.w3.org/1999/xlink">
    <title>Path 11 Copy</title>
    <g id="Page-1" stroke="none" stroke-width="1" fill="none" fill-rule="evenodd" stroke-linejoin="round">
        <path d="M1254.37947,1.42430599 C1256.68714,1.19591275 1259.49963,2.1419667 1262.80637,4.33216854 C1262.99387,4.45635662 1263.17707,4.58064217 1263.35532,4.70579884 C1263.18912,4.84577729 1263.02208,4.98715421 1262.85417,5.12992922 C1256.68617,10.3748302 1252.56594,14.7832148 1250.50961,18.3670043 C1249.52561,20.0819298 1249.01919,21.5959957 1249.01923,22.9152686 C1249.01926,24.1617726 1249.48677,25.2190093 1250.41755,26.0887778 C1251.0384,26.6689332 1251.83885,26.9497606 1252.91983,26.9557361 C1254.10345,26.962279 1255.59949,26.6478829 1257.53302,26.0205788 C1262.12827,24.5297155 1269.11533,21.2839187 1280.0529,16.2067665 C1284.1275,14.3153626 1288.74881,12.170181 1293.99691,9.76707276 C1296.65931,8.54795873 1302.89881,8.5047914 1312.74317,9.72547984 C1312.93604,9.74939592 1313.12746,9.77344447 1313.31613,9.79790013 C1313.26639,9.98219628 1313.21548,10.1680778 1313.16339,10.3555448 C1311.57108,16.0858784 1309.79889,19.97861 1307.88227,22.0576514 C1306.40071,23.6647717 1305.52897,30.8058418 1305.52897,38.7847355 C1305.52897,45.8228187 1306.25144,53.5501156 1307.99035,58.9221906 C1310.35007,66.2121511 1310.84636,71.416197 1309.61001,74.5711978 C1316.21357,73.809629 1321.35957,72.7453524 1325.04608,71.3713283 C1328.88093,69.942016 1334.91215,66.7739031 1343.14157,61.8729199 C1343.23851,61.7860831 1343.33048,61.6906125 1343.4174,61.5940588 L1343.51926,61.4781578 C1344.13243,60.7661887 1344.46701,60.1603027 1344.48913,62.7202517 C1344.47686,64.8246771 1344.3381,67.7264089 1344.07222,71.8718469 C1343.9389,73.9504289 1343.36897,76.9034606 1342.73942,80.1535052 C1342.02103,83.8621872 1341.22558,87.9625891 1340.9359,91.5760875 C1340.60468,95.7078005 1340.59502,101.923565 1340.90506,110.222961 C1343.94596,108.370875 1346.25126,106.731561 1347.81823,105.30157 C1349.50544,103.761854 1351.42848,101.467837 1353.59142,98.4233122 C1353.74983,98.2003245 1353.90487,97.9798773 1354.05655,97.7620323 C1354.1873,97.9988011 1354.31597,98.2388141 1354.44256,98.4820728 C1356.65848,102.740139 1357.69507,106.948415 1357.56224,111.104837 C1357.43149,115.196469 1356.07456,121.715855 1353.47913,130.661658 L1353.47913,130.661658 L1352.75676,168.902689 C1346.95068,194.390641 1334.9919,216.531227 1316.88053,235.3245 C1298.86016,254.023351 1275.1584,274.025492 1245.77351,295.328981 L1245.77351,295.328981 L1241.77559,314.215237 C1258.4418,310.390063 1275.38987,308.101656 1292.61981,307.350084 C1310.06488,306.589129 1363.75354,295.486537 1453.68158,274.053426 C1463.2528,265.397893 1471.40586,254.97367 1478.14244,242.782106 C1483.6763,232.767179 1491.95878,222.877612 1500.42395,216.980707 C1504.2273,214.331266 1508.07007,212.486734 1511.71987,211.778423 C1515.12938,211.116742 1518.37387,211.441689 1521.27802,213.005051 C1521.8244,213.299182 1522.44223,213.621364 1523.12468,213.977264 C1529.47583,217.289431 1541.37871,223.499253 1553.43344,237.074252 C1553.97132,237.679971 1554.54038,238.315092 1555.13295,238.976462 C1562.14274,246.800094 1572.36375,258.272565 1573.47544,268.241461 C1573.88626,271.925489 1572.8934,275.611225 1570.47355,279.293847 C1568.14963,282.830489 1564.50047,286.370046 1559.51702,289.904896 C1562.81745,297.482406 1564.02098,303.495225 1563.18475,307.942016 C1562.02725,314.097197 1559.72872,315.99091 1554.9941,319.827767 C1554.48439,320.240826 1553.94596,320.677152 1553.37718,321.144956 C1547.59646,325.899395 1539.4285,330.740598 1533.65723,332.16895 C1530.204,333.023603 1527.21955,332.05849 1524.31056,331.095082 C1522.37563,330.454265 1520.47743,329.816406 1518.48242,329.816406 C1516.21652,329.816406 1507.32183,329.327695 1494.67945,328.056084 C1490.8181,327.667696 1484.41952,326.904325 1475.48202,325.766043 C1460.90436,331.327165 1439.77016,342.322854 1412.07734,358.748403 C1409.36955,360.354486 1406.51471,362.092701 1403.50159,363.927268 C1384.59481,375.438873 1359.46809,390.734078 1325.36508,401.019717 C1314.47797,404.303324 1295.74347,406.967489 1269.1594,409.002905 L1269.1594,409.002905 L1097.67042,454.020102 C1089.14636,468.069269 1079.23163,478.898476 1067.93278,486.51422 C1064.49363,488.832303 1061.94987,490.620535 1059.81725,492.11972 C1058.55939,493.00397 1057.44414,493.788049 1056.37277,494.521038 L1055.94633,494.811625 C1055.80481,494.907657 1055.66384,495.002896 1055.52317,495.097461 L1055.10188,495.379243 L1055.10188,495.379243 L1054.68106,495.657669 L1054.68106,495.657669 L1054.2593,495.933438 L1054.2593,495.933438 L1053.8352,496.207248 L1053.8352,496.207248 L1053.40736,496.479796 C1048.31688,499.700241 1042.14509,502.802354 1024.42212,510.991003 C1005.99365,519.505615 979.329926,526.48217 956.797913,532.374719 C941.111656,536.476973 927.433741,540.05065 919.966881,543.258233 C907.870704,548.45446 881.950664,557.347723 842.211125,569.941379 C847.379903,609.519557 849.776962,637.579317 849.407102,654.120552 C848.821156,680.325777 843.024772,704.612263 839.242494,720.452694 C838.307053,724.370382 837.495241,727.76988 836.917282,730.551898 C833.970671,744.735462 828.752091,754.880671 823.021138,762.111974 C813.643941,773.944098 802.883679,777.992136 798.348968,779.137129 C793.489541,780.364112 784.979516,780.377017 772.815047,779.149819 C749.166823,774.160569 719.190475,759.14616 682.841118,734.075658 C646.66131,709.122097 609.59893,690.504062 571.645594,678.229904 C494.369505,711.346196 450.057748,732.096001 438.721494,740.49549 C429.732915,747.155491 386.530422,771.879519 339.259868,784.095425 C333.261037,785.645674 327.516347,785.727623 322.844281,784.855197 C317.497652,783.856809 313.572886,781.592803 312.136487,778.886771 C310.528922,775.858278 308.681863,771.071602 310.477988,764.421898 C311.683517,759.958726 314.542004,754.639596 320.279565,748.441589 C322.888951,745.622796 325.911016,742.433253 329.150478,739.014286 C332.380278,735.605517 335.826335,731.968516 339.294446,728.243905 L339.294446,728.243905 L340.485548,726.962097 C340.667589,726.765779 340.849632,726.569264 341.03165,726.372571 L342.123222,725.190455 C352.849554,713.548628 363.290321,701.432154 367.657715,693.011972 C367.903504,692.538099 368.14956,692.066146 368.396311,691.595922 L368.890865,690.657725 L368.890865,690.657725 L369.388032,689.723803 C376.536459,676.366612 384.724558,664.222713 404.031889,648.816209 C407.322002,646.190825 413.589337,646.086913 422.926997,648.725877 C434.771334,653.474288 442.577636,656.080062 446.385963,656.520668 L446.495,656.532 L446.309593,656.443677 C446.025254,656.310765 445.709304,656.172064 445.366718,656.021039 L445.104861,655.905358 C441.868696,654.471125 436.570358,652.114976 432.915866,648.907722 C430.468744,646.76008 428.769531,644.232911 428.769531,641.373047 C428.769531,638.508129 432.300957,629.705827 441.572173,620.91144 C447.310677,615.468075 455.243294,610.023521 465.872491,606.017478 C474.738529,602.675954 492.690672,601.142742 519.737994,601.451309 L519.737994,601.451309 L538.825507,588.133792 C521.608377,583.705831 509.500325,579.651119 502.497294,575.978947 C495.37429,572.243864 488.015391,566.020611 480.428242,557.298828 L480.428242,557.298828 L468.862194,557.298828 C457.998691,559.39086 448.682933,560.083513 440.915099,559.383725 C433.140525,558.68333 423.643847,556.292493 412.426441,552.204147 C391.940532,539.415164 377.02858,518.228693 367.624953,488.574968 C364.74563,479.49521 362.326465,466.56799 359.602,451.998079 C355.761931,431.462135 351.311967,407.654277 344.083206,386.785727 C342.631327,382.594331 339.268677,379.580171 334.038294,377.705042 C328.620331,374.599415 321.951687,372.522076 313.955537,371.426032 C311.331957,371.066414 306.227989,370.770382 299.094467,370.355259 C289.909227,369.820739 277.369019,369.090943 262.430006,367.782468 C256.342783,367.249302 246.896809,366.001126 234.092167,364.037189 C200.490477,353.47723 173.549295,328.802161 153.219126,289.962342 C132.983267,251.302702 118.511779,197.094383 109.81535,127.332323 C83.5470771,127.929911 63.8113292,130.201619 50.6103618,134.158633 C37.3404768,138.136306 21.1109067,146.685778 1.9167718,159.795696 C1.60983434,160.005339 1.30425895,160.214701 1.00042815,160.413326 C1.04619727,160.04965 1.09230721,159.685126 1.13875798,159.319754 C7.27625295,111.043484 15.4706837,78.5881424 25.6851277,61.9367978 C41.0562304,36.8791902 69.4238192,12.8525456 93.0692228,9.72599416 C94.108248,9.58860739 95.3841306,9.35071425 96.8981987,9.06879553 C105.98899,7.37609484 123.571767,4.10208519 149.907277,11.0752502 C173.634796,17.3578664 225.063545,36.0306329 304.183087,67.0935015 C386.21722,97.4097647 448.538432,118.012776 491.147227,128.90082 C533.742102,139.785307 581.49787,147.312565 634.410161,151.48366 C663.586956,153.540508 684.411414,154.895162 696.88354,155.547558 C708.530298,156.15678 719.303599,156.636917 729.332898,157.0839 C766.684674,158.748585 793.728831,159.958178 817.137604,165.646954 C850.609113,173.781165 884.895218,186.729562 919.995313,204.493822 C949.481097,224.343937 969.940116,240.734454 981.433582,253.688671 C992.858974,266.566164 1006.01947,287.988036 1020.90591,317.961054 L1020.90591,317.961054 L1035.60267,306.485093 C1035.23376,303.450462 1033.82428,298.907192 1031.38772,292.852686 C1027.56608,283.356501 1021.75273,259.365554 1023.71595,242.9645 C1024.57113,235.820151 1026.67905,227.789377 1028.47844,220.939826 C1029.78351,215.971981 1030.92628,211.630873 1031.29533,208.717494 C1031.43372,207.62503 1031.46588,206.743992 1031.33874,206.12316 C1031.29281,205.898876 1031.22924,205.71427 1031.1283,205.581566 C1029.4346,205.108683 1026.84838,204.421621 1024.77122,202.118801 C1023.44986,200.653882 1022.32751,198.53192 1021.84897,195.413069 C1021.12748,190.710728 1021.87445,183.685383 1025.68106,173.137401 C1032.29472,154.811174 1043.14511,141.620321 1058.21711,133.551176 C1058.00055,133.209001 1057.88208,132.763027 1057.88208,132.199341 C1057.88208,131.439212 1058.10749,130.44113 1058.57374,129.215227 C1060.64738,123.480655 1076.18551,80.4758288 1113.22204,43.5220281 C1133.40696,23.3821908 1150.97331,13.881848 1169.65823,9.73356447 C1180.60179,7.30395985 1194.25226,7.9410931 1205.9746,8.49413789 C1214.18013,8.88126404 1221.43255,9.22975694 1226.11116,8.42136311 C1231.19831,7.54237851 1235.08913,6.27268026 1238.86815,5.04063273 C1239.2143,4.92778056 1239.55952,4.81524433 1239.90463,4.70334164 L1240.94042,4.36985186 C1244.91588,3.1011952 1248.98372,1.95832983 1254.37947,1.42430599 Z" id="Path-11-Copy" stroke="#D80A01"></path>
    </g>
</svg>