<?xml version="1.0" standalone="no"?>
<!DOCTYPE svg PUBLIC "-//W3C//DTD SVG 20010904//EN"
 "http://www.w3.org/TR/2001/REC-SVG-20010904/DTD/svg10.dtd">
<svg version="1.0" xmlns="http://www.w3.org/2000/svg"
 width="1280.000000pt" height="932.000000pt" viewBox="0 0 1280.000000 932.000000"
 preserveAspectRatio="xMidYMid meet">
<g transform="translate(0.000000,932.000000) scale(0.100000,-0.100000)"
fill="#000000" stroke="none">
<path d="M4925 8624 c-1549 -122 -3136 -865 -3971 -1859 -418 -497 -728 -1165
-863 -1855 -68 -349 -103 -768 -82 -983 33 -327 63 -498 117 -665 25 -77 104
-255 111 -249 2 2 -6 39 -17 83 -20 81 -27 184 -11 184 4 0 21 -35 36 -77 35
-98 87 -202 135 -273 46 -67 118 -150 131 -150 5 0 -5 28 -22 61 -42 84 -24
96 32 22 53 -71 207 -228 215 -220 3 3 -12 29 -34 59 -48 65 -85 135 -73 142
4 3 38 -30 75 -72 37 -43 95 -100 129 -127 34 -27 90 -78 124 -112 71 -70 67
-56 -23 82 -61 93 -99 173 -89 183 4 4 23 -13 44 -38 86 -107 235 -249 248
-237 2 3 -21 40 -52 83 -65 90 -148 254 -143 281 2 12 26 -17 72 -87 52 -79
104 -140 213 -248 113 -113 151 -157 175 -205 28 -59 29 -60 23 -22 -4 22 -22
73 -42 113 -19 41 -32 77 -28 80 3 3 18 -1 33 -10 20 -13 39 -46 75 -135 154
-380 234 -693 254 -988 l6 -93 -29 -13 c-16 -8 -37 -30 -47 -49 -36 -69 -6
-236 85 -480 80 -213 103 -256 182 -335 147 -146 429 -295 591 -312 44 -5 55
-2 83 21 l31 27 48 -21 c26 -12 69 -39 96 -61 26 -22 47 -34 47 -27 -1 27 -39
97 -75 137 -21 23 -35 44 -33 47 3 3 32 -2 64 -10 178 -45 334 -45 388 0 44
38 128 31 225 -17 39 -19 71 -31 71 -26 0 24 -45 78 -93 111 -67 46 -108 58
-177 50 -36 -4 -95 1 -175 15 -155 27 -179 34 -183 53 -7 37 151 63 227 37 90
-32 18 45 -99 106 -48 24 -159 69 -248 99 -182 62 -229 90 -304 179 -66 79
-269 387 -318 483 -68 133 -120 332 -120 459 0 111 32 217 76 256 13 11 46 18
99 22 117 7 267 61 480 172 99 51 197 96 217 100 28 5 61 0 129 -21 l92 -28
18 23 c11 13 19 34 19 47 0 27 32 64 55 64 20 0 71 -26 113 -57 18 -14 35 -23
37 -22 1 2 -2 27 -8 55 -22 106 14 132 97 69 l46 -35 0 36 c0 36 15 74 28 74
5 0 32 -22 60 -50 29 -27 56 -50 62 -50 6 0 10 27 10 60 0 65 21 120 45 120
11 0 15 -13 15 -54 0 -64 12 -78 30 -35 22 53 69 109 117 139 26 17 51 30 56
30 5 0 6 -36 2 -85 -4 -48 -4 -85 1 -85 5 0 17 23 27 50 22 61 67 114 119 141
44 22 58 18 58 -16 0 -14 27 -54 71 -106 278 -321 441 -645 519 -1030 28 -137
50 -344 50 -476 0 -62 4 -113 9 -113 16 0 72 97 96 165 12 36 25 69 29 72 3 3
31 -18 63 -47 116 -106 270 -155 488 -155 119 1 149 4 200 23 79 29 99 28 288
-15 151 -34 172 -37 310 -35 165 2 215 -9 280 -60 21 -16 41 -28 44 -25 3 3 0
22 -7 41 -15 45 -62 82 -143 111 -110 40 -69 67 98 64 55 -1 125 2 155 6 65 9
122 -5 175 -41 42 -28 53 -25 37 11 -24 52 -107 84 -280 110 -72 11 -135 28
-215 60 -212 86 -359 113 -657 121 -131 4 -224 11 -257 20 -64 18 -117 66
-163 147 -34 61 -70 94 -190 174 -134 90 -147 109 -248 363 -72 181 -99 272
-104 350 l-3 45 70 7 c84 8 143 28 206 69 59 38 136 119 145 153 7 27 10 29
61 26 30 -1 32 1 35 36 2 31 8 39 28 44 39 9 46 45 28 152 -8 51 -12 97 -7
102 7 8 45 -4 112 -33 5 -2 0 14 -11 35 -21 42 -47 119 -57 172 -9 46 14 42
55 -10 48 -60 131 -148 140 -148 4 0 -5 32 -21 70 -32 81 -57 186 -45 197 14
14 98 -90 136 -169 l37 -76 6 60 c3 39 13 71 26 89 l21 28 -28 43 c-47 70 -78
169 -54 168 4 0 25 -14 47 -31 36 -27 118 -59 154 -59 8 0 -12 16 -45 36 -73
44 -106 74 -150 142 -56 83 -76 153 -78 262 -1 117 20 185 77 247 42 45 97 68
140 58 15 -4 36 1 58 14 42 25 133 60 168 66 14 2 46 8 71 14 25 5 98 10 163
10 183 1 240 27 380 169 141 143 221 171 372 132 170 -45 235 -53 309 -41 88
15 215 80 269 138 21 23 47 45 57 48 11 3 22 14 25 25 7 23 136 122 190 147
74 33 135 86 185 160 28 41 50 78 50 84 0 19 58 94 122 156 77 76 181 133 243
133 54 0 102 -32 134 -90 l25 -44 8 34 c74 311 207 588 356 743 64 65 87 71
96 27 l6 -30 39 39 c29 29 58 45 106 60 37 12 71 18 77 15 10 -6 6 -41 -7 -76
-6 -15 -3 -16 27 -8 45 13 175 13 183 -1 4 -5 -1 -19 -10 -29 -16 -18 -13 -18
86 -17 114 2 135 -9 67 -38 -41 -17 -42 -18 -18 -25 14 -4 37 -8 51 -9 26 -1
171 -71 200 -97 8 -8 18 -14 22 -14 14 0 288 -188 357 -246 41 -34 129 -117
196 -185 317 -326 650 -789 1068 -1485 129 -214 174 -270 226 -281 22 -4 38
-19 60 -55 58 -95 111 -123 130 -72 22 57 -27 179 -241 604 -228 453 -432 816
-638 1135 -218 339 -263 455 -261 678 2 132 2 132 -21 129 -13 -1 -30 -9 -39
-17 -37 -34 -46 -19 -54 95 -3 41 -9 105 -12 141 -4 37 -1 89 5 119 6 29 9 55
6 58 -3 3 -23 -13 -45 -36 -21 -23 -41 -42 -44 -42 -9 0 -16 51 -21 161 -5 89
-3 130 9 176 9 34 16 65 16 71 0 18 -37 1 -80 -36 -55 -47 -63 -35 -55 86 l5
92 -29 0 c-33 0 -35 6 -47 115 -3 33 -12 82 -20 109 -7 27 -11 52 -8 57 2 4 0
16 -6 26 -5 10 -19 43 -30 74 -11 30 -27 64 -35 75 -13 17 -14 14 -15 -42 0
-35 -6 -68 -14 -79 -15 -21 -12 -28 -48 110 -30 117 -127 329 -144 312 -2 -2
1 -19 6 -38 12 -41 13 -109 2 -109 -5 0 -21 27 -37 60 -32 66 -65 106 -65 77
0 -37 -21 -23 -51 33 -48 90 -149 175 -149 126 0 -25 -21 -29 -41 -10 -10 11
-31 43 -47 72 -29 53 -29 54 -36 25 -4 -15 -12 -34 -18 -40 -17 -21 -63 -15
-101 15 -20 15 -79 60 -131 100 -52 40 -113 94 -135 120 -23 26 -41 42 -41 35
0 -38 48 -129 101 -193 33 -39 58 -74 56 -77 -19 -18 -261 143 -341 226 -31
33 -56 53 -56 45 0 -18 36 -89 65 -129 58 -79 45 -74 -112 43 -132 97 -193
138 -193 128 0 -3 27 -35 60 -71 66 -74 123 -166 118 -192 -2 -13 -19 -3 -72
45 -37 34 -71 62 -75 62 -5 0 3 -23 17 -50 18 -37 22 -54 14 -62 -8 -8 -36 13
-104 77 -128 122 -277 229 -295 211 -3 -3 18 -31 46 -63 62 -69 135 -177 161
-239 24 -54 11 -65 -45 -38 -39 18 -87 72 -130 147 -15 26 -29 47 -30 45 -5
-5 24 -138 41 -190 19 -59 12 -73 -25 -53 -41 21 -86 76 -129 158 l-37 72 -3
-53 c-2 -30 4 -88 13 -129 8 -42 13 -78 10 -81 -9 -9 -42 28 -60 68 -23 52
-35 51 -36 -2 -2 -58 -12 -101 -25 -105 -6 -2 -19 16 -29 39 l-18 43 -7 -51
c-14 -94 -58 -134 -90 -82 l-19 32 -11 -28 c-5 -15 -10 -31 -10 -36 0 -4 -14
-20 -31 -34 -37 -32 -86 -34 -122 -6 -29 23 -47 26 -47 7 0 -26 -80 -87 -113
-87 -8 0 -39 37 -69 83 -85 127 -167 224 -291 343 -357 343 -832 550 -1461
635 -121 16 -217 21 -481 24 -181 1 -352 1 -380 -1z"/>
</g>
</svg>
