<?xml version="1.0" encoding="UTF-8"?>
<svg width="890px" height="405px" viewBox="0 0 890 405" version="1.1" xmlns="http://www.w3.org/2000/svg" xmlns:xlink="http://www.w3.org/1999/xlink">
    <title>hills</title>
    <g id="Page-1" stroke="none" stroke-width="1" fill="none" fill-rule="evenodd">
        <path d="M1.1417,403.57775 C68.5524417,326.947792 111.299479,282.553385 129.382813,270.394531 C156.507813,252.15625 253.277344,202.100813 269.71875,181.57775 C286.160156,161.054688 378.882813,38.203125 423.929688,21.5546875 C468.976563,4.90625 473.976563,0.822730459 482.59375,0.822730459 C486.615052,0.822730459 498.70955,0.797786973 524.828125,27.8515625 C532.2909,35.5815496 546.506395,54.1785548 567.474609,83.6425781 C605.58138,58.2675781 628.15625,45.5800781 635.199219,45.5800781 C645.763672,45.5800781 660.580078,42.594125 709.978516,112.085938 C759.376953,181.57775 784.785156,263.144531 810.683594,296.1875 C827.949219,318.216146 854.101921,354.012896 889.1417,403.57775 L1.1417,403.57775 Z" id="hills" stroke="#4F2F1D"></path>
    </g>
</svg>